<svg width="500" height="500" viewBox="0 0 500 500" fill="none" xmlns="http://www.w3.org/2000/svg">
<rect width="500" height="500" fill="#FAF0E6"/>
<rect width="500" height="500" fill="#183A37"/>
<path d="M93.75 125H140.625L125 242.188L140.625 375H125H93.75L93.75 125Z" fill="#FAF0E6"/>
<path d="M140.625 375L250 390.625L359.375 375V421.875H140.625V375Z" fill="#FAF0E6"/>
<path d="M425.379 398.177C425.379 411.122 414.886 421.615 401.941 421.615C388.997 421.615 378.504 411.122 378.504 398.177C378.504 385.233 388.997 374.74 401.941 374.74C414.886 374.74 425.379 385.233 425.379 398.177Z" fill="#FAF0E6"/>
<path d="M397.598 393.534L402.4 391.571L413.237 402.108L413.275 409.233L397.598 393.534ZM391.294 389.192L413.169 389.077L413.201 395.264L391.326 395.379L391.294 389.192ZM391.367 403.035L401.824 394.98L405.346 399.024L391.404 410.129L391.367 403.035Z" fill="#183A37"/>
<path d="M140.625 78.125H359.375V125L257.812 109.375L140.625 125V78.125Z" fill="#FAF0E6"/>
<path d="M164.062 218.75H250H343.75V265.625H250H164.062L156.25 242.188L164.062 218.75Z" fill="#FAF0E6"/>
<path d="M191.088 361.64L132.662 410.585L117.187 375L125 367.188L132.813 359.375L140.625 351.563L191.088 361.64Z" fill="#183A37"/>
<path d="M191.357 137.676L132.935 88.7275L117.457 124.311L125.269 132.124L133.091 140.625L140.904 148.437L191.357 137.676Z" fill="#183A37"/>
</svg>
