<svg id="visual" viewBox="0 0 960 80" width="960" height="80" xmlns="http://www.w3.org/2000/svg" xmlns:xlink="http://www.w3.org/1999/xlink" version="1.1"><rect x="0" y="0" width="960" height="80" fill="#FAF0E6"></rect><path d="M0 30L17.8 27.3C35.7 24.7 71.3 19.3 106.8 17C142.3 14.7 177.7 15.3 213.2 21.3C248.7 27.3 284.3 38.7 320 38.2C355.7 37.7 391.3 25.3 426.8 26.3C462.3 27.3 497.7 41.7 533.2 46.2C568.7 50.7 604.3 45.3 640 46.3C675.7 47.3 711.3 54.7 746.8 59C782.3 63.3 817.7 64.7 853.2 60.5C888.7 56.3 924.3 46.7 942.2 41.8L960 37L960 81L942.2 81C924.3 81 888.7 81 853.2 81C817.7 81 782.3 81 746.8 81C711.3 81 675.7 81 640 81C604.3 81 568.7 81 533.2 81C497.7 81 462.3 81 426.8 81C391.3 81 355.7 81 320 81C284.3 81 248.7 81 213.2 81C177.7 81 142.3 81 106.8 81C71.3 81 35.7 81 17.8 81L0 81Z" fill="#04151F" stroke-linecap="round" stroke-linejoin="miter"></path></svg>